<?xml version="1.0" standalone="no"?>
<!DOCTYPE svg PUBLIC "-//W3C//DTD SVG 20010904//EN"
 "http://www.w3.org/TR/2001/REC-SVG-20010904/DTD/svg10.dtd">
<svg version="1.0" xmlns="http://www.w3.org/2000/svg"
 width="1029.000000pt" height="1029.000000pt" viewBox="0 0 1029.000000 1029.000000"
 preserveAspectRatio="xMidYMid meet">
<metadata>
Created by potrace 1.11, written by Peter Selinger 2001-2013
</metadata>
<g transform="translate(0.000000,1029.000000) scale(0.100000,-0.100000)"
fill="#000000" stroke="none">
<path d="M1210 5190 l0 -5100 3915 0 3915 0 0 5100 0 5100 -3915 0 -3915 0 0
-5100z m7770 5 l0 -5045 -3855 0 -3855 0 0 5045 0 5045 3855 0 3855 0 0 -5045z"/>
<path d="M2100 9784 c-199 -43 -344 -183 -397 -386 -22 -85 -21 -252 1 -338
26 -98 80 -191 147 -255 114 -109 260 -151 489 -142 187 8 320 49 473 146 l47
31 0 235 0 235 -275 0 -275 0 0 -115 0 -114 118 -3 117 -3 0 -50 0 -50 -70
-35 c-64 -32 -76 -35 -160 -35 -77 0 -98 4 -140 25 -99 51 -143 165 -133 347
12 198 109 295 283 280 76 -6 123 -32 154 -88 l21 -36 167 29 c92 16 169 31
171 33 3 2 -9 33 -26 69 -57 121 -148 193 -279 221 -88 19 -345 18 -433 -1z"/>
<path d="M6483 9785 c-256 -56 -413 -267 -413 -555 0 -279 142 -478 387 -546
88 -24 291 -29 383 -10 154 32 289 125 353 243 63 118 87 342 52 491 -60 255
-264 393 -579 391 -67 0 -149 -7 -183 -14z m301 -268 c21 -12 52 -38 67 -57
70 -88 79 -311 18 -438 -72 -148 -329 -143 -406 8 -48 93 -48 307 0 400 25 49
85 97 138 111 51 12 138 1 183 -24z"/>
<path d="M3080 9230 l0 -550 180 0 180 0 0 550 0 550 -180 0 -180 0 0 -550z"/>
<path d="M3700 9230 l0 -550 305 0 c343 0 417 9 517 62 116 62 206 191 227
328 16 95 13 240 -5 328 -40 197 -151 320 -331 367 -45 12 -127 15 -385 15
l-328 0 0 -550z m577 285 c48 -20 71 -41 94 -88 46 -90 44 -324 -3 -410 -36
-65 -74 -81 -200 -86 l-108 -3 0 307 0 308 90 -6 c50 -4 107 -14 127 -22z"/>
<path d="M4950 9230 l0 -550 485 0 485 0 0 125 0 125 -305 0 -305 0 0 110 0
110 275 0 275 0 0 110 0 110 -275 0 -275 0 0 90 0 90 295 0 295 0 0 115 0 115
-475 0 -475 0 0 -550z"/>
<path d="M7460 9230 l0 -550 165 0 165 0 0 301 c0 165 4 298 8 295 5 -3 102
-138 218 -300 l209 -296 168 0 167 0 0 550 0 550 -165 0 -165 0 0 -301 c0
-165 -4 -298 -8 -295 -5 3 -103 138 -217 301 l-209 295 -168 0 -168 0 0 -550z"/>
<path d="M1650 5025 l0 -3394 188 -60 c381 -121 1051 -334 1542 -489 278 -88
783 -249 1123 -357 l618 -196 77 25 c42 13 390 123 772 244 382 121 1060 336
1505 477 446 141 878 278 960 304 l150 48 3 3396 2 3397 -3470 0 -3470 0 0
-3395z m6880 -8 l0 -3343 -397 -126 c-219 -70 -713 -226 -1098 -348 -385 -122
-970 -307 -1300 -412 -330 -105 -607 -191 -615 -190 -8 0 -163 48 -345 105
-181 58 -701 223 -1155 367 -454 144 -1052 333 -1330 421 -278 88 -521 165
-540 172 l-35 13 -3 3342 -2 3342 3410 0 3410 0 0 -3343z"/>
<path d="M4840 7635 c-388 -47 -748 -179 -1071 -393 -368 -245 -650 -564 -844
-957 -119 -241 -191 -465 -232 -725 -26 -164 -26 -580 0 -733 46 -272 124
-512 239 -740 120 -237 251 -420 437 -610 365 -375 821 -614 1346 -708 116
-21 161 -24 410 -24 249 0 294 3 410 24 525 94 981 334 1346 708 369 378 597
841 681 1383 20 133 17 557 -5 700 -78 496 -300 951 -643 1319 -288 309 -700
559 -1119 680 -281 81 -663 112 -955 76z m549 -60 c814 -91 1524 -591 1886
-1327 108 -220 179 -444 221 -703 26 -156 26 -543 1 -705 -108 -680 -483
-1269 -1049 -1643 -297 -197 -588 -310 -959 -374 -149 -26 -579 -26 -728 0
-141 24 -249 50 -365 87 -783 251 -1388 891 -1591 1685 -58 224 -70 331 -70
600 0 184 5 266 18 350 44 264 109 470 221 700 443 908 1412 1442 2415 1330z"/>
<path d="M4964 7320 c-665 -55 -1244 -395 -1616 -949 -495 -739 -470 -1723 64
-2447 96 -130 308 -344 433 -437 288 -213 612 -349 967 -404 156 -24 470 -24
626 0 355 55 679 191 967 404 125 93 337 307 433 437 473 641 551 1479 206
2196 -272 563 -780 982 -1379 1135 -225 58 -490 82 -701 65z m125 -1325 c-1
-399 -4 -725 -8 -725 -3 0 -80 153 -170 340 l-164 339 169 385 c93 212 170
386 172 386 2 0 2 -326 1 -725z m236 332 l158 -377 -164 -344 -164 -344 -3
452 c-3 386 5 1003 13 994 1 -2 73 -173 160 -381z m-1017 -302 c205 -56 376
-106 381 -111 11 -11 332 -676 329 -680 -3 -3 -1095 869 -1118 893 -13 14 -12
14 10 7 14 -4 193 -53 398 -109z m2005 82 c-75 -63 -1092 -885 -1101 -891 -6
-3 48 116 120 266 72 150 148 310 168 355 35 75 42 83 77 93 88 26 739 199
751 199 8 1 1 -10 -15 -22z m-1461 -827 c59 -46 106 -86 104 -88 -5 -4 -700
159 -708 167 -8 7 -387 687 -396 710 -3 7 197 -148 444 -346 247 -197 497
-397 556 -443z m1482 723 c-103 -186 -377 -669 -383 -675 -7 -8 -671 -160
-682 -156 -6 3 1089 896 1099 898 2 0 -13 -30 -34 -67z m-1729 -799 c204 -48
373 -89 377 -93 4 -3 -189 -51 -430 -105 -240 -55 -570 -130 -732 -167 -162
-37 -296 -66 -298 -64 -3 2 699 512 708 514 3 1 172 -38 375 -85z m1704 -174
c183 -127 329 -230 322 -230 -21 0 -1330 307 -1321 310 25 9 630 148 645 149
11 0 169 -102 354 -229z m-424 -125 c319 -74 622 -145 672 -157 51 -12 92 -23
90 -24 -2 -2 -178 -40 -392 -84 -314 -65 -394 -79 -409 -69 -23 13 -564 445
-586 467 -19 19 -67 29 625 -133z m-900 126 c-6 -5 -136 -111 -290 -235 -164
-133 -288 -226 -300 -226 -11 0 -108 15 -215 34 -107 19 -289 51 -405 71 -115
20 -211 38 -213 39 -1 2 71 19 160 40 90 20 408 92 708 161 300 68 549 124
555 124 6 1 6 -2 0 -8z m548 -295 l287 -230 1 -50 c0 -28 8 -215 18 -416 10
-201 16 -367 14 -369 -1 -2 -25 43 -52 100 -27 57 -170 355 -319 661 -148 307
-262 552 -253 545 10 -6 147 -115 304 -241z m-764 -283 c-396 -831 -367 -774
-368 -728 -1 88 48 788 56 796 24 24 548 446 551 444 2 -2 -105 -232 -239
-512z m750 -247 c149 -308 270 -561 268 -563 -2 -1 -147 120 -323 270 l-319
273 3 389 4 390 48 -100 c26 -55 170 -352 319 -659z m-439 361 l0 -383 -311
-272 c-171 -150 -308 -265 -305 -254 3 10 120 256 259 547 139 292 275 578
302 637 28 59 51 107 53 108 1 0 2 -172 2 -383z"/>
<path d="M1910 2150 l0 -160 25 0 c24 0 25 3 25 59 l0 58 61 6 c68 6 94 23
107 72 5 17 5 45 0 62 -12 46 -50 63 -143 63 l-75 0 0 -160z m151 100 c20 -11
25 -45 10 -68 -5 -8 -29 -14 -57 -15 l-49 -2 -3 48 -3 47 41 0 c23 0 50 -5 61
-10z"/>
<path d="M2170 2150 l0 -160 110 0 110 0 0 25 c0 25 -1 25 -85 25 l-85 0 0 45
0 45 75 0 c73 0 75 1 75 25 0 24 -2 25 -75 25 l-75 0 0 40 0 40 86 0 c83 0 85
1 82 23 -3 21 -8 22 -110 25 l-108 3 0 -161z"/>
<path d="M2430 2150 l0 -160 25 0 c24 0 25 2 25 63 0 35 2 66 5 69 3 2 19 2
36 0 26 -4 39 -16 71 -68 34 -55 44 -64 69 -64 16 0 29 2 29 5 0 2 -18 34 -40
71 l-41 66 24 19 c31 24 39 65 22 107 -18 41 -47 52 -146 52 l-79 0 0 -160z
m170 95 c7 -8 10 -25 6 -40 -6 -23 -11 -25 -66 -25 l-60 0 0 40 0 40 54 0 c35
0 58 -5 66 -15z"/>
<path d="M2710 2150 l0 -160 25 0 c24 0 25 2 25 70 l0 70 65 0 65 0 0 -70 c0
-68 1 -70 25 -70 l25 0 0 160 0 160 -25 0 c-23 0 -24 -4 -27 -62 l-3 -63 -60
0 -60 0 -3 63 c-3 58 -4 62 -27 62 l-25 0 0 -160z"/>
<path d="M3000 2150 l0 -160 25 0 25 0 0 160 0 160 -25 0 -25 0 0 -160z"/>
<path d="M3100 2150 l0 -160 25 0 c25 0 25 0 26 98 l1 97 31 -97 c27 -86 34
-98 54 -98 20 0 26 12 55 103 l33 102 3 -102 c3 -102 3 -103 27 -103 l25 0 0
160 0 160 -33 0 -34 0 -33 -110 c-18 -61 -36 -113 -39 -115 -4 -2 -22 48 -40
111 l-34 114 -34 0 -33 0 0 -160z"/>
<path d="M3420 2149 l0 -160 28 3 c26 3 27 6 30 61 l3 57 37 1 c55 0 105 21
119 49 22 44 16 88 -16 121 -28 28 -34 29 -115 29 l-86 0 0 -161z m164 95 c35
-34 9 -71 -56 -80 l-48 -7 0 52 0 51 44 0 c27 0 51 -6 60 -16z"/>
<path d="M3682 2183 c5 -168 24 -197 124 -195 39 0 52 6 78 31 l31 31 4 130 3
130 -25 0 c-25 0 -25 0 -29 -119 -3 -78 -9 -125 -17 -135 -16 -19 -84 -21 -99
-3 -7 7 -13 66 -14 133 l-3 119 -29 3 -28 4 4 -129z"/>
<path d="M3960 2150 l0 -160 25 0 c24 0 24 1 27 108 l3 107 65 -105 c54 -87
70 -106 93 -108 l27 -3 0 160 0 161 -25 0 c-24 0 -24 -1 -27 -107 l-3 -108
-65 107 c-57 95 -68 108 -92 108 l-28 0 0 -160z"/>
<path d="M4320 2306 c0 -3 -25 -75 -55 -160 l-54 -156 29 0 c25 0 30 6 42 43
l15 42 55 3 55 3 13 -46 c11 -40 16 -45 41 -45 16 0 29 3 29 7 0 3 -26 75 -57
160 -55 147 -59 153 -85 153 -16 0 -28 -2 -28 -4z m48 -125 c16 -52 16 -51
-18 -51 -16 0 -30 3 -30 6 0 17 24 84 30 84 4 0 12 -17 18 -39z"/>
<path d="M4504 2297 c-2 -7 -3 -78 -2 -157 l3 -145 25 0 c25 0 25 1 30 100 l5
99 61 -99 c50 -82 65 -101 87 -103 l27 -3 0 160 0 161 -25 0 c-24 0 -24 -1
-27 -107 l-3 -107 -65 107 c-52 86 -69 107 -88 107 -12 0 -25 -6 -28 -13z"/>
<path d="M4894 2297 c-2 -7 -3 -78 -2 -157 l3 -145 28 -3 c27 -3 27 -3 27 57
l0 61 40 0 c51 0 105 22 119 48 6 12 11 38 11 59 -1 70 -37 93 -145 93 -53 0
-77 -4 -81 -13z m160 -53 c20 -19 21 -48 2 -63 -7 -6 -34 -14 -60 -17 l-46 -7
0 52 0 51 44 0 c27 0 51 -6 60 -16z"/>
<path d="M5160 2150 l0 -160 110 0 110 0 0 25 c0 25 -1 25 -85 25 l-85 0 0 45
0 45 75 0 c73 0 75 1 75 25 0 24 -2 25 -75 25 l-75 0 0 40 0 40 80 0 c79 0 80
0 80 25 l0 25 -105 0 -105 0 0 -160z"/>
<path d="M5410 2149 l0 -160 28 3 27 3 5 99 5 99 61 -99 c49 -82 65 -100 87
-102 l27 -3 0 160 0 161 -25 0 c-24 0 -24 -1 -27 -107 l-3 -108 -65 108 c-57
94 -68 107 -92 107 l-28 0 0 -161z"/>
<path d="M5700 2150 l0 -160 110 0 110 0 0 25 c0 25 -1 25 -85 25 l-85 0 0 45
0 45 75 0 c73 0 75 1 75 25 0 24 -2 25 -75 25 l-75 0 0 40 0 40 80 0 c79 0 80
0 80 25 l0 25 -105 0 -105 0 0 -160z"/>
<path d="M5955 2298 c-3 -8 -4 -79 -3 -158 l3 -145 28 -3 27 -3 1 98 0 98 20
-60 c10 -33 24 -77 29 -97 9 -31 16 -38 35 -38 22 0 27 9 51 88 37 122 46 125
43 12 l-2 -95 27 -3 26 -3 0 160 0 161 -33 0 -33 0 -33 -102 c-18 -57 -35
-110 -38 -118 -3 -8 -22 37 -42 100 -36 114 -37 115 -69 118 -20 2 -34 -2 -37
-10z"/>
<path d="M6280 2151 l0 -161 25 0 c24 0 25 3 25 60 l0 60 38 0 c69 0 111 18
129 54 19 41 11 95 -18 122 -17 15 -40 20 -110 22 l-89 4 0 -161z m164 88 c23
-33 6 -62 -42 -73 -60 -13 -72 -5 -72 49 l0 45 49 0 c39 0 53 -4 65 -21z"/>
<path d="M6540 2193 c0 -92 4 -126 18 -153 34 -69 147 -73 196 -7 18 25 21 42
21 150 l0 122 -27 3 -28 3 0 -118 c0 -141 -7 -156 -65 -151 -55 4 -65 28 -65
161 l0 107 -25 0 -25 0 0 -117z"/>
<path d="M6820 2151 l0 -161 30 0 30 0 0 70 0 70 60 0 59 0 3 -67 c3 -66 4
-68 31 -71 l27 -3 0 161 0 161 -27 -3 c-27 -3 -28 -6 -31 -65 l-3 -63 -59 0
-59 0 -3 63 c-3 59 -4 62 -30 65 l-28 3 0 -160z"/>
<path d="M7210 2149 l0 -160 28 3 c26 3 27 5 28 68 l1 65 29 -3 c38 -5 48 -15
87 -79 28 -47 35 -53 65 -53 l34 0 -23 38 c-12 20 -34 52 -48 71 -17 24 -21
36 -12 39 64 21 67 132 4 161 -13 6 -62 11 -108 11 l-85 0 0 -161z m174 95
c19 -18 19 -20 6 -45 -9 -15 -22 -19 -68 -19 l-58 0 4 40 4 40 48 0 c31 0 54
-6 64 -16z"/>
<path d="M7500 2150 l0 -160 25 0 25 0 0 160 0 160 -25 0 -25 0 0 -160z"/>
<path d="M7600 2150 l0 -160 25 0 c24 0 24 1 27 98 l3 97 31 -95 c27 -85 33
-95 54 -95 21 0 27 11 56 95 l32 95 1 -97 c1 -98 1 -98 26 -98 l25 0 0 161 0
160 -31 -3 c-31 -3 -33 -6 -69 -118 l-37 -115 -37 118 -37 117 -35 0 -34 0 0
-160z"/>
<path d="M7927 2303 c-4 -3 -7 -76 -7 -161 l0 -154 91 4 c85 3 92 5 115 31 29
34 32 85 6 118 -17 20 -17 25 -5 50 18 35 8 74 -24 99 -20 16 -41 20 -98 20
-39 0 -75 -3 -78 -7z m139 -51 c41 -28 13 -72 -47 -72 -39 0 -39 0 -39 40 0
40 0 40 38 40 20 0 42 -4 48 -8z m18 -138 c36 -36 6 -74 -60 -74 l-44 0 0 45
0 45 44 0 c27 0 51 -6 60 -16z"/>
<path d="M8248 2263 c-9 -27 -34 -99 -56 -160 l-40 -113 28 0 c24 0 30 6 42
43 l15 42 55 3 55 3 13 -46 c11 -40 16 -45 41 -45 16 0 29 3 29 8 0 4 -25 76
-57 160 -54 142 -59 152 -83 152 -22 0 -29 -7 -42 -47z m60 -82 c16 -52 16
-51 -18 -51 -16 0 -30 3 -30 6 0 17 24 84 30 84 4 0 12 -17 18 -39z"/>
<path d="M5799 1851 c-50 -16 -71 -33 -90 -74 -25 -55 -24 -127 1 -177 42 -81
156 -101 234 -39 23 18 26 28 26 80 l0 59 -70 0 c-68 0 -70 -1 -70 -25 0 -22
4 -25 40 -25 36 0 40 -3 40 -25 0 -49 -92 -64 -135 -21 -58 58 -32 189 40 196
49 5 66 -1 83 -30 18 -31 28 -35 51 -21 26 16 -6 71 -53 92 -44 20 -57 21 -97
10z"/>
<path d="M7236 1850 c-64 -20 -96 -76 -96 -167 0 -69 23 -114 72 -139 46 -24
118 -22 162 6 35 21 36 23 36 86 l0 64 -65 0 c-63 0 -65 -1 -65 -25 0 -22 4
-25 40 -25 36 0 40 -3 40 -25 0 -30 -26 -45 -78 -45 -77 0 -115 86 -78 175 25
59 114 67 145 14 17 -30 27 -34 49 -20 12 7 11 14 -2 40 -29 55 -96 81 -160
61z"/>
<path d="M2910 1691 l0 -161 78 0 c120 0 162 35 170 139 5 70 -9 119 -44 152
-22 21 -37 24 -115 27 l-89 4 0 -161z m167 87 c28 -30 37 -85 23 -137 -12 -46
-36 -61 -96 -61 l-34 0 0 110 0 110 43 0 c32 0 49 -6 64 -22z"/>
<path d="M3275 1841 c-3 -5 -29 -77 -59 -160 l-53 -151 27 0 c23 0 30 7 44 45
l18 45 53 0 54 0 12 -41 c13 -43 25 -53 58 -47 19 3 18 6 -13 88 -18 47 -45
118 -60 158 -24 61 -31 72 -51 72 -13 0 -26 -4 -30 -9z m65 -168 c0 -2 -16 -3
-35 -3 -19 0 -35 1 -35 3 0 2 7 25 16 52 l17 48 18 -49 c11 -27 19 -50 19 -51z"/>
<path d="M3460 1691 l0 -161 25 0 c24 0 24 1 27 108 l3 107 65 -107 c57 -95
68 -108 93 -108 l27 0 0 160 0 160 -25 0 c-24 0 -24 -1 -27 -107 l-3 -108 -65
105 c-54 87 -70 106 -93 108 l-27 3 0 -160z"/>
<path d="M3860 1845 c0 -3 -1 -74 -1 -157 l0 -153 25 -3 c25 -3 26 -2 26 56
l0 59 61 6 c69 6 103 30 113 78 7 37 -15 93 -42 108 -20 11 -182 16 -182 6z
m163 -66 c5 -9 7 -28 3 -42 -6 -25 -10 -27 -61 -27 l-55 0 0 46 0 45 51 -3
c34 -2 55 -9 62 -19z"/>
<path d="M4120 1690 l0 -160 115 0 115 0 0 25 c0 25 -1 25 -90 25 l-90 0 0 45
0 45 80 0 c79 0 80 0 80 25 0 25 -1 25 -80 25 l-80 0 0 40 0 40 85 0 c84 0 85
0 85 25 l0 25 -110 0 -110 0 0 -160z"/>
<path d="M4380 1690 l0 -160 25 0 c24 0 24 1 27 107 l3 108 65 -105 c54 -87
70 -106 93 -108 l27 -3 0 160 0 161 -25 0 c-24 0 -24 -1 -27 -107 l-3 -108
-65 107 c-57 94 -68 107 -92 108 l-28 0 0 -160z"/>
<path d="M4670 1690 l0 -160 76 0 c89 0 125 17 151 70 22 46 21 135 -2 183
-24 52 -58 67 -150 67 l-75 0 0 -160z m161 91 c21 -17 24 -28 24 -91 0 -63 -3
-74 -24 -91 -15 -12 -39 -19 -67 -19 l-44 0 0 110 0 110 44 0 c28 0 52 -7 67
-19z"/>
<path d="M5030 1848 c0 -2 -25 -72 -55 -157 -30 -85 -55 -156 -55 -158 0 -1
13 -3 29 -3 25 0 30 5 41 45 l13 46 55 -3 c55 -3 55 -3 71 -45 13 -37 19 -43
43 -43 15 0 28 3 28 8 -1 4 -27 75 -58 157 -53 139 -60 150 -85 153 -15 2 -27
2 -27 0z m40 -103 c5 -14 13 -37 16 -50 6 -23 3 -25 -29 -25 l-35 0 16 50 c9
28 17 50 19 50 2 0 8 -11 13 -25z"/>
<path d="M5210 1690 l0 -160 30 0 c30 0 30 0 30 57 0 39 5 62 17 75 16 18 19
15 65 -57 45 -70 50 -75 83 -75 l35 0 -64 93 -64 92 59 65 58 65 -32 3 c-29 3
-39 -4 -94 -65 l-62 -68 -1 68 0 67 -30 0 -30 0 0 -160z"/>
<path d="M5480 1690 l0 -160 30 0 30 0 0 160 0 160 -30 0 -30 0 0 -160z"/>
<path d="M6002 1726 c5 -141 16 -168 74 -192 44 -18 96 -10 132 21 26 23 27
26 30 159 l4 136 -26 0 -26 0 0 -113 c0 -132 -10 -157 -65 -157 -58 0 -65 16
-65 151 l0 119 -31 0 -32 0 5 -124z"/>
<path d="M6290 1691 l0 -161 25 0 c24 0 24 1 27 107 l3 108 65 -108 c57 -94
68 -107 93 -107 l27 0 0 160 0 160 -25 0 -25 0 0 -107 c0 -72 -3 -104 -10 -97
-6 6 -36 53 -68 105 -48 77 -63 95 -85 97 l-27 3 0 -160z"/>
<path d="M6579 1843 c0 -5 0 -62 1 -128 1 -137 11 -161 75 -183 45 -15 102 -2
131 29 16 18 19 40 22 155 l4 134 -26 0 -26 0 0 -113 c0 -132 -10 -157 -65
-157 -58 0 -65 16 -65 151 l0 119 -25 0 c-14 0 -25 -3 -26 -7z"/>
<path d="M6860 1691 l0 -161 25 0 c24 0 24 1 27 107 l3 108 65 -108 c57 -94
68 -107 93 -107 l27 0 0 160 0 160 -25 0 -25 0 0 -107 c0 -72 -3 -104 -10 -97
-6 6 -36 53 -68 105 -48 77 -63 95 -85 97 l-27 3 0 -160z"/>
</g>
</svg>
